<svg xmlns="http://www.w3.org/2000/svg" viewBox="0 0 128 128">
  <defs>
    <linearGradient id="potGrad" x1="0%" y1="0%" x2="0%" y2="100%">
      <stop offset="0%" style="stop-color:#5d4037"/>
      <stop offset="100%" style="stop-color:#3e2723"/>
    </linearGradient>
    <linearGradient id="soilGrad" x1="0%" y1="0%" x2="0%" y2="100%">
      <stop offset="0%" style="stop-color:#4a3728"/>
      <stop offset="100%" style="stop-color:#2d1f14"/>
    </linearGradient>
  </defs>

  <!-- Pot -->
  <path d="M24 50 L32 110 C32 116 40 120 64 120 C88 120 96 116 96 110 L104 50 Z" fill="url(#potGrad)"/>

  <!-- Pot rim -->
  <ellipse cx="64" cy="50" rx="44" ry="10" fill="#6d4c41"/>

  <!-- Soil -->
  <ellipse cx="64" cy="54" rx="36" ry="8" fill="url(#soilGrad)"/>

  <!-- Sprout stem -->
  <path d="M64 54 Q64 35 64 25" stroke="#4a9c6d" stroke-width="4" fill="none" stroke-linecap="round"/>

  <!-- Left leaf -->
  <path d="M64 35 Q50 25 45 35 Q50 45 64 40" fill="#4a9c6d"/>

  <!-- Right leaf -->
  <path d="M64 28 Q78 18 83 28 Q78 38 64 33" fill="#5ab87d"/>
</svg>
